<svg width="32" height="32" viewBox="0 0 32 32" fill="none" xmlns="http://www.w3.org/2000/svg">
<path d="M15.998 4.2002C16.4399 4.2002 16.7979 4.55817 16.7979 5V6.37305C17.7128 6.46091 18.5835 6.69899 19.3867 7.06055C19.1782 7.55572 19.0492 8.09207 19.0107 8.65332C18.1057 8.1939 17.0824 7.93361 15.998 7.93359C12.3161 7.93359 9.33105 10.9187 9.33105 14.6006V23.4004H22.665V14.6006C22.665 14.3312 22.6473 14.0657 22.6162 13.8047C23.0552 13.9307 23.5185 14 23.998 14C24.0789 14 24.1593 13.997 24.2393 13.9932C24.2538 14.1938 24.2646 14.3962 24.2646 14.6006V23.4004H26.6641C27.1059 23.4004 27.4648 23.7584 27.4648 24.2002C27.4648 24.642 27.1059 25 26.6641 25H20.3711C20.1713 25.821 19.7881 26.5848 19.2402 27.2109C18.4009 28.1702 17.2374 28.7334 15.998 28.7334C14.7586 28.7334 13.5952 28.1702 12.7559 27.2109C12.208 26.5848 11.8248 25.821 11.625 25H5.33105C4.88923 25 4.53125 24.642 4.53125 24.2002C4.53125 23.7584 4.88923 23.4004 5.33105 23.4004H7.73145V14.6006C7.73145 10.3049 11.008 6.77536 15.1982 6.37305V5C15.1982 4.55817 15.5562 4.2002 15.998 4.2002ZM13.292 25C13.4456 25.4337 13.6721 25.8282 13.96 26.1572C14.5209 26.7983 15.2572 27.1338 15.998 27.1338C16.7389 27.1338 17.4752 26.7982 18.0361 26.1572C18.324 25.8282 18.5505 25.4337 18.7041 25H13.292ZM21.1289 8.12109C22.3764 9.11028 23.3303 10.4514 23.8428 11.9951C22.2581 11.9143 20.998 10.6048 20.998 9C20.998 8.69418 21.0439 8.39906 21.1289 8.12109Z" fill="#1B1A2A"/>
<circle cx="24" cy="9" r="3" fill="#FF7490"/>
</svg>
