<svg width="32" height="32" viewBox="0 0 32 32" fill="none" xmlns="http://www.w3.org/2000/svg">
<path d="M18.9208 8.4795C19.0668 8.62552 19.1024 8.82426 19.0603 9.00154C19.0183 9.17763 18.8987 9.34098 18.7233 9.42277C18.4511 9.54973 18.1966 9.7243 17.9734 9.94757C16.9025 11.0186 16.9402 12.8022 18.0693 13.9313C19.1984 15.0603 20.982 15.0981 22.053 14.0272C22.2763 13.804 22.4509 13.5495 22.5778 13.2773C22.6596 13.1019 22.823 12.9823 22.9991 12.9403C23.1764 12.8983 23.3751 12.9338 23.5211 13.0798L25.6942 15.2529C25.9036 15.4626 25.9015 15.8047 25.6763 15.9932C25.0294 16.5344 23.565 17.7731 22.1856 19.0281C22.868 19.0998 23.5399 19.4018 24.0722 19.9341C25.2638 21.1258 25.3118 23.0199 24.1675 24.1643C23.0231 25.3084 21.1295 25.2599 19.9379 24.0683C19.4055 23.5358 19.1042 22.8637 19.0326 22.1811C17.7775 23.5606 16.5385 25.0253 15.9971 25.6724C15.8086 25.8976 15.4664 25.8998 15.2568 25.6904L13.0837 23.5173C12.9377 23.3713 12.9015 23.1731 12.9435 22.9959C12.9853 22.8198 13.1051 22.6566 13.2805 22.5747C13.5527 22.4478 13.8071 22.2731 14.0304 22.0499C15.1014 20.9789 15.0643 19.1947 13.9351 18.0655C12.8059 16.9363 11.0218 16.8992 9.95074 17.9702C9.72753 18.1935 9.55285 18.4479 9.42593 18.7201C9.34403 18.8954 9.18082 19.0153 9.00471 19.0571C8.82747 19.0991 8.62932 19.0629 8.48335 18.9169L6.30886 16.7424C6.09934 16.5328 6.10086 16.19 6.32612 16.0015C6.97296 15.4602 8.43627 14.2213 9.81539 12.9666C9.13395 12.8943 8.46321 12.5935 7.93162 12.062C6.74001 10.8704 6.69154 8.97683 7.83563 7.83247C8.97997 6.68813 10.8742 6.73607 12.0658 7.92776C12.5972 8.45915 12.8987 9.12969 12.9711 9.81085C14.2257 8.43184 15.4643 6.96883 16.0053 6.32227C16.1938 6.09701 16.5367 6.09549 16.7463 6.30501L18.9208 8.4795Z" fill="white" stroke="white" stroke-width="0.174075" stroke-linejoin="round"/>
</svg>
