<svg width="250" height="52" viewBox="0 0 250 52" fill="none" xmlns="http://www.w3.org/2000/svg">
<path d="M7.50027 36.866C6.83361 36.4811 6.83361 35.5189 7.50027 35.134L16.3926 30L16.3926 42L7.50027 36.866Z" fill="#6F00FB"/>
<path d="M16.3926 8C16.3926 3.58172 19.9743 0 24.3926 0H241.393C245.811 0 249.393 3.58172 249.393 8V44C249.393 48.4183 245.811 52 241.393 52H24.3926C19.9743 52 16.3926 48.4183 16.3926 44V8Z" fill="#6F00FB"/>
<path d="M29.9863 22H28.6152L31.6621 13.5156H33.1504L36.209 22H34.8379L34.0645 19.7617H30.7598L29.9863 22ZM31.1289 18.6836H33.6895L32.4355 15.0625H32.377L31.1289 18.6836ZM38.5762 13.5156V22H37.2871V13.5156H38.5762ZM47.998 12.4961V16.6797H49.627V17.6055H47.998V22.9844H46.8848V12.4961H47.998ZM39.8301 20.1836C42.4609 18.8711 43.8906 16.9727 44.1191 14.5234H40.3574V13.5977H45.2559C45.2441 16.6328 43.9082 19.3457 40.4512 21.0508L39.8301 20.1836ZM62.1074 12.4961V22.9961H61.041V17.6172H59.6934V22.457H58.6504V12.707H59.6934V16.7031H61.041V12.4961H62.1074ZM53.6113 20.3242V13.7383H54.7246V19.3457C55.6914 19.334 56.752 19.2578 57.9473 19.0234L58.0645 19.9961C56.623 20.2539 55.4219 20.3301 54.291 20.3242H53.6113ZM74.5996 12.4961V16.6797H76.2285V17.6055H74.5996V22.9844H73.4863V12.4961H74.5996ZM66.4316 20.1836C69.0625 18.8711 70.4922 16.9727 70.7207 14.5234H66.959V13.5977H71.8574C71.8457 16.6328 70.5098 19.3457 67.0527 21.0508L66.4316 20.1836ZM85.4863 12.4961V22.9961H84.373V12.4961H85.4863ZM76.9434 20.125C78.5664 19.3984 79.6445 17.6289 79.6504 15.8711V15.1797H77.2598V14.2891H79.6387V12.707H80.7402V14.2891H83.0957V15.1797H80.7402V15.8711C80.7461 17.5469 81.8477 19.2578 83.4824 19.9492L82.873 20.8047C81.6602 20.2773 80.6992 19.1816 80.2129 17.8574C79.7383 19.2637 78.7832 20.4297 77.5645 20.9805L76.9434 20.125ZM93.0098 13.293V13.8789C92.998 14.582 92.998 15.625 92.7402 16.9844L91.6387 16.8789C91.8672 15.7188 91.9023 14.8691 91.9141 14.207H87.7129V13.293H93.0098ZM87.0801 17.8867C87.7246 17.8867 88.457 17.8809 89.2246 17.8633V15.6484H90.3262V17.8281C91.4512 17.7812 92.6113 17.6992 93.666 17.5469L93.7363 18.3555C91.5449 18.7422 89.0371 18.7832 87.1855 18.7891L87.0801 17.8867ZM88.6738 22.7734V19.668H89.7871V21.8711H95.8105V22.7734H88.6738ZM94.334 20.3828V12.4961H95.4707V15.8359H96.9121V16.7734H95.4707V20.3828H94.334ZM102.314 12.6719C104.682 12.666 106.059 13.3047 106.064 14.4766C106.059 15.6543 104.682 16.293 102.314 16.293C99.9473 16.293 98.5586 15.6543 98.5645 14.4766C98.5586 13.3047 99.9473 12.666 102.314 12.6719ZM97.5332 17.8281V16.9375H107.107V17.8281H97.5332ZM98.6816 19.4688V18.6367H105.9V21.0977H99.7832V22.0352H106.193V22.8906H98.6934V20.2891H104.799V19.4688H98.6816ZM99.7246 14.4766C99.7188 15.127 100.645 15.4609 102.314 15.4609C103.996 15.4609 104.922 15.127 104.916 14.4766C104.922 13.8555 103.996 13.4922 102.314 13.4922C100.645 13.4922 99.7188 13.8555 99.7246 14.4766ZM119.248 16.3633V17.2422H112.123V13.0938H119.119V13.9961H113.248V16.3633H119.248ZM110.822 19.4219V18.5195H120.432V19.4219H116.143V22.9727H115.053V19.4219H110.822ZM133.709 16.8086V17.6992H129.467V18.6367H132.502V21.1211H126.385V22.0352H132.795V22.8906H125.295V20.3242H131.4V19.4688H125.283V18.6367H128.365V17.6992H124.135V16.8086H133.709ZM124.627 15.5312C126.525 15.373 128.014 14.6406 128.242 13.7148H125.014V12.8359H132.854V13.7148H129.59C129.812 14.6348 131.318 15.373 133.229 15.5312L132.865 16.375C131.061 16.2051 129.549 15.5547 128.916 14.5586C128.283 15.5547 126.783 16.2051 124.979 16.375L124.627 15.5312ZM144.115 20.8047V21.7422H134.506V20.8047H138.736V18.9648H135.678V15.625H141.842V14.1484H135.654V13.2344H142.943V16.5156H136.779V18.0508H143.189V18.9648H139.838V20.8047H144.115ZM157.416 20.7578V21.6836H147.807V20.7578H150.104V18.0156C149.242 17.541 148.715 16.791 148.721 15.8477C148.715 14.1953 150.338 13.1113 152.588 13.1055C154.844 13.1113 156.467 14.1953 156.467 15.8477C156.467 16.7734 155.963 17.5176 155.119 17.9922V20.7578H157.416ZM149.799 15.8477C149.799 16.9727 150.941 17.7051 152.588 17.7109C154.223 17.7051 155.383 16.9727 155.389 15.8477C155.383 14.7168 154.223 13.9961 152.588 13.9961C150.941 13.9961 149.799 14.7168 149.799 15.8477ZM151.205 20.7578H153.994V18.4258C153.566 18.5254 153.092 18.5781 152.588 18.5781C152.096 18.5781 151.627 18.5254 151.205 18.4258V20.7578ZM167.916 14.0312V14.9453H166.428V16.2812H167.916V17.2188H166.428V18.7188H165.314V12.4961H166.428V14.0312H167.916ZM158.342 15.6133C158.33 14.1426 159.525 13.1055 161.131 13.1055C162.742 13.1055 163.92 14.1426 163.932 15.6133C163.92 17.0957 162.742 18.1211 161.131 18.1211C159.525 18.1211 158.33 17.0957 158.342 15.6133ZM159.432 15.6133C159.42 16.5566 160.146 17.1836 161.131 17.1719C162.115 17.1836 162.836 16.5566 162.842 15.6133C162.836 14.6758 162.115 14.0605 161.131 14.0547C160.146 14.0605 159.42 14.6758 159.432 15.6133ZM159.49 20.0898V19.1875H166.428V22.9961H165.314V20.0898H159.49ZM173.74 14.2305V15.1328H168.525V14.2305H170.588V12.8008H171.689V14.2305H173.74ZM168.865 18.1797C168.859 16.7676 169.82 15.7656 171.139 15.7656C172.469 15.7656 173.418 16.7676 173.424 18.1797C173.418 19.6152 172.469 20.623 171.139 20.6172C169.82 20.623 168.859 19.6152 168.865 18.1797ZM169.85 18.1797C169.844 19.0703 170.383 19.668 171.139 19.668C171.895 19.668 172.439 19.0703 172.439 18.1797C172.439 17.3066 171.895 16.6973 171.139 16.6914C170.383 16.6973 169.844 17.3066 169.85 18.1797ZM174.221 22.5039V12.7305H175.275V16.8672H176.482V12.4961H177.537V22.9961H176.482V17.7812H175.275V22.5039H174.221ZM182.705 15.168C182.705 17.0898 183.783 19.0059 185.389 19.7266L184.709 20.6172C183.52 20.0195 182.617 18.8359 182.154 17.4004C181.691 18.9121 180.777 20.1895 179.564 20.8164L178.861 19.9141C180.49 19.1348 181.574 17.1133 181.58 15.168V13.375H182.705V15.168ZM184.229 16.8906V15.9883H186.572V12.4961H187.674V23.0195H186.572V16.8906H184.229ZM201.83 20.7695V21.6953H192.221V20.7695H196.451V18.6133H193.322V13.2109H194.436V15.0156H199.592V13.2109H200.693V18.6133H197.553V20.7695H201.83ZM194.436 17.7109H199.592V15.918H194.436V17.7109ZM205.439 13.2812C206.4 13.2871 207.186 13.832 207.648 14.7812H210.244V12.4961H211.346V23.0195H210.244V18.9883H207.725C207.273 20.043 206.453 20.6582 205.439 20.6523C203.875 20.6582 202.768 19.2285 202.779 16.9609C202.768 14.7168 203.875 13.2871 205.439 13.2812ZM203.834 16.9609C203.84 18.6309 204.49 19.6562 205.439 19.6562C206.389 19.6562 207.039 18.6309 207.045 16.9609C207.039 15.3145 206.389 14.2832 205.439 14.2773C204.49 14.2832 203.84 15.3145 203.834 16.9609ZM207.965 15.6953C208.047 16.082 208.1 16.5039 208.1 16.9609C208.1 17.3594 208.064 17.7285 207.994 18.0742H210.244V15.6953H207.965ZM216.924 14.2422C216.924 15.168 217.92 15.9941 219.467 16.2695L219.01 17.125C217.785 16.8789 216.854 16.2988 216.379 15.5254C215.904 16.3691 214.955 17.0078 213.666 17.2773L213.197 16.4219C214.803 16.1172 215.793 15.2383 215.799 14.2422V14.125H213.584V13.2344H219.162V14.125H216.924V14.2422ZM212.916 18.0391C214.873 18.0449 217.533 18.0215 219.83 17.6992L219.9 18.5312C218.904 18.7012 217.873 18.8066 216.865 18.8711V22.668H215.752V18.9238C214.785 18.9648 213.871 18.9707 213.068 18.9766L212.916 18.0391ZM218.295 20.5469V19.6914H220.615V12.5078H221.74V22.9961H220.615V20.5469H218.295ZM232.943 20.7578V21.6836H223.334V20.7578H225.631V18.0156C224.77 17.541 224.242 16.791 224.248 15.8477C224.242 14.1953 225.865 13.1113 228.115 13.1055C230.371 13.1113 231.994 14.1953 231.994 15.8477C231.994 16.7734 231.49 17.5176 230.646 17.9922V20.7578H232.943ZM225.326 15.8477C225.326 16.9727 226.469 17.7051 228.115 17.7109C229.75 17.7051 230.91 16.9727 230.916 15.8477C230.91 14.7168 229.75 13.9961 228.115 13.9961C226.469 13.9961 225.326 14.7168 225.326 15.8477ZM226.732 20.7578H229.521V18.4258C229.094 18.5254 228.619 18.5781 228.115 18.5781C227.623 18.5781 227.154 18.5254 226.732 18.4258V20.7578ZM234.9 22.082C234.443 22.0762 234.062 21.707 234.068 21.25C234.062 20.793 234.443 20.418 234.9 20.418C235.352 20.418 235.727 20.793 235.732 21.25C235.727 21.707 235.352 22.0762 234.9 22.082ZM29.9863 38H28.6152L31.6621 29.5156H33.1504L36.209 38H34.8379L34.0645 35.7617H30.7598L29.9863 38ZM31.1289 34.6836H33.6895L32.4355 31.0625H32.377L31.1289 34.6836ZM38.5762 29.5156V38H37.2871V29.5156H38.5762ZM52.3574 36.7578V37.6836H42.748V36.7578H45.0449V34.0156C44.1836 33.541 43.6562 32.791 43.6621 31.8477C43.6562 30.1953 45.2793 29.1113 47.5293 29.1055C49.7852 29.1113 51.4082 30.1953 51.4082 31.8477C51.4082 32.7734 50.9043 33.5176 50.0605 33.9922V36.7578H52.3574ZM44.7402 31.8477C44.7402 32.9727 45.8828 33.7051 47.5293 33.7109C49.1641 33.7051 50.3242 32.9727 50.3301 31.8477C50.3242 30.7168 49.1641 29.9961 47.5293 29.9961C45.8828 29.9961 44.7402 30.7168 44.7402 31.8477ZM46.1465 36.7578H48.9355V34.4258C48.5078 34.5254 48.0332 34.5781 47.5293 34.5781C47.0371 34.5781 46.5684 34.5254 46.1465 34.4258V36.7578ZM62.8574 30.0312V30.9453H61.3691V32.2812H62.8574V33.2188H61.3691V34.7188H60.2559V28.4961H61.3691V30.0312H62.8574ZM53.2832 31.6133C53.2715 30.1426 54.4668 29.1055 56.0723 29.1055C57.6836 29.1055 58.8613 30.1426 58.873 31.6133C58.8613 33.0957 57.6836 34.1211 56.0723 34.1211C54.4668 34.1211 53.2715 33.0957 53.2832 31.6133ZM54.373 31.6133C54.3613 32.5566 55.0879 33.1836 56.0723 33.1719C57.0566 33.1836 57.7773 32.5566 57.7832 31.6133C57.7773 30.6758 57.0566 30.0605 56.0723 30.0547C55.0879 30.0605 54.3613 30.6758 54.373 31.6133ZM54.4316 36.0898V35.1875H61.3691V38.9961H60.2559V36.0898H54.4316ZM73.0645 33.9805V34.8711H63.4902V33.9805H73.0645ZM64.5215 30.9453C64.5156 29.627 65.9863 28.8418 68.2715 28.8477C70.5449 28.8418 72.0156 29.627 72.0215 30.9453C72.0156 32.2695 70.5449 33.0723 68.2715 33.0781C65.9863 33.0723 64.5156 32.2695 64.5215 30.9453ZM64.6973 38.7734V35.7266H65.8223V37.8711H71.9863V38.7734H64.6973ZM65.6699 30.9453C65.6641 31.7246 66.6602 32.1641 68.2715 32.1641C69.877 32.1641 70.8789 31.7246 70.873 30.9453C70.8789 30.1953 69.877 29.7383 68.2715 29.7383C66.6602 29.7383 65.6641 30.1953 65.6699 30.9453ZM80.4473 31.5898C80.4414 33.248 81.5371 35.0996 83.1309 35.8555L82.498 36.7227C81.3203 36.1602 80.3828 34.9766 79.9082 33.6055C79.4277 35.0996 78.4434 36.3945 77.248 36.9922L76.5918 36.1133C78.1855 35.3457 79.3398 33.3652 79.3457 31.5898V30.4766H76.9785V29.5508H82.7324V30.4766H80.4473V31.5898ZM83.8574 38.9961V28.4961H84.9707V32.6562H86.6582V33.5938H84.9707V38.9961H83.8574ZM96.7598 34.4258V35.3398H94.3223V38.9961H93.1973V35.3398H90.6895V38.9961H89.541V35.3398H87.1504V34.4258H96.7598ZM88.1934 31.2148C88.1992 29.7969 89.7109 28.8945 91.9316 28.8945C94.1523 28.8945 95.6758 29.7969 95.6699 31.2148C95.6758 32.6152 94.1523 33.5 91.9316 33.4883C89.7109 33.5 88.1992 32.6152 88.1934 31.2148ZM89.3418 31.2148C89.3359 32.0762 90.373 32.6094 91.9316 32.6094C93.4961 32.6094 94.5273 32.0762 94.5332 31.2148C94.5273 30.3301 93.4961 29.791 91.9316 29.7852C90.373 29.791 89.3359 30.3301 89.3418 31.2148ZM107.131 33.8164V34.7188H97.5215V33.8164H101.775V32.9375H98.752V30.3828H104.811V29.5625H98.7285V28.6953H105.924V31.2031H99.8535V32.0703H106.135V32.9375H102.877V33.8164H107.131ZM98.7871 38.8672V35.1992H99.9004V36.1133H104.834V35.1992H105.936V38.8672H98.7871ZM99.9004 37.9883H104.834V36.9688H99.9004V37.9883ZM116.928 28.4961V38.9961H115.873V28.4961H116.928ZM107.869 35.9609C110.096 34.6367 111.162 32.873 111.355 30.7109H108.361V29.7969H112.463C112.457 30.8223 112.316 31.8008 111.994 32.7148H113.658V28.7656H114.713V38.4805H113.658V33.6055H111.607C110.986 34.8242 109.984 35.8906 108.502 36.7578L107.869 35.9609ZM126.584 29.4219C126.578 30.8164 128.283 32.123 130.346 32.3984L129.912 33.3125C128.195 33.0371 126.689 32.1465 126.004 30.9102C125.318 32.1465 123.812 33.0371 122.107 33.3125L121.662 32.3984C123.719 32.123 125.418 30.834 125.424 29.4219V28.8477H126.584V29.4219ZM121.205 35.2578V34.3438H130.779V35.2578H126.514V38.9961H125.424V35.2578H121.205ZM140.33 28.4961V34.7422H139.217V32.082H137.26V31.168H139.217V28.4961H140.33ZM131.576 33.793C133.205 33.2246 134.207 31.8066 134.201 30.3594V30.125H131.928V29.2227H137.588V30.125H135.338V30.3477C135.332 31.6777 136.281 32.9727 137.869 33.5117L137.295 34.3906C136.117 33.9863 135.25 33.1426 134.793 32.1055C134.336 33.2773 133.416 34.2207 132.162 34.6836L131.576 33.793ZM133.264 37.0156C133.258 35.7676 134.605 35.041 136.814 35.0352C139.012 35.041 140.359 35.7676 140.365 37.0156C140.359 38.2637 139.012 38.9902 136.814 38.9961C134.605 38.9902 133.258 38.2637 133.264 37.0156ZM134.365 37.0156C134.359 37.7246 135.273 38.1289 136.814 38.1172C138.344 38.1289 139.258 37.7246 139.264 37.0156C139.258 36.3008 138.344 35.8965 136.814 35.9023C135.273 35.8965 134.359 36.3008 134.365 37.0156ZM150.197 28.4609V30.9219H151.732V31.8359H150.197V34.2383H149.084V28.4609H150.197ZM141.959 30.2656V29.3867H144.537V28.4023H145.65V29.3867H148.217V30.2656H141.959ZM142.533 32.3867C142.527 31.3262 143.547 30.6641 145.088 30.6641C146.629 30.6641 147.631 31.3262 147.631 32.3867C147.631 33.4531 146.629 34.1035 145.088 34.0977C143.547 34.1035 142.527 33.4531 142.533 32.3867ZM143.412 35.5625V34.7305H150.197V37.168H144.525V38.0469H150.561V38.8906H143.436V36.3828H149.096V35.5625H143.412ZM143.611 32.3867C143.6 32.9551 144.18 33.2891 145.088 33.2891C145.99 33.2891 146.576 32.9551 146.588 32.3867C146.576 31.8184 145.99 31.4668 145.088 31.4609C144.18 31.4668 143.6 31.8184 143.611 32.3867ZM160.627 29.4219C160.621 30.8164 162.326 32.123 164.389 32.3984L163.955 33.3125C162.238 33.0371 160.732 32.1465 160.047 30.9102C159.361 32.1465 157.855 33.0371 156.15 33.3125L155.705 32.3984C157.762 32.123 159.461 30.834 159.467 29.4219V28.8477H160.627V29.4219ZM155.248 35.2578V34.3438H164.822V35.2578H160.557V38.9961H159.467V35.2578H155.248ZM172.193 35.4336C172.193 36.3359 172.639 37.291 173.594 37.8594C174.555 37.2441 175.029 36.2422 175.029 35.4336V34.9297H176.119V35.4336C176.113 36.5234 176.834 37.5781 178.205 38.0234L177.654 38.8438C176.617 38.4863 175.908 37.7832 175.545 36.9277C175.211 37.7715 174.584 38.5391 173.623 38.9375C172.615 38.5566 171.977 37.8125 171.654 36.957C171.273 37.7832 170.582 38.4805 169.592 38.8438L169.029 38.0234C170.377 37.543 171.109 36.4473 171.115 35.4336V34.9297H172.193V35.4336ZM168.76 31.5664C168.766 30.0957 169.949 29.0879 171.561 29.082C173.166 29.0879 174.35 30.0957 174.35 31.5664C174.35 33.0195 173.166 34.0273 171.561 34.0273C169.949 34.0273 168.766 33.0195 168.76 31.5664ZM169.85 31.5664C169.844 32.4805 170.564 33.1016 171.561 33.1016C172.545 33.1016 173.26 32.4805 173.26 31.5664C173.26 30.6465 172.545 30.0254 171.561 30.0312C170.564 30.0254 169.844 30.6465 169.85 31.5664ZM176.143 34.4844V28.5078H177.256V34.4844H176.143ZM181.768 29.2812C183.197 29.2871 184.234 30.4941 184.404 32.4336H186.572V28.4961H187.674V39.0195H186.572V33.3359H184.416C184.293 35.3867 183.232 36.6582 181.768 36.6523C180.203 36.6582 179.096 35.2285 179.107 32.9609C179.096 30.7168 180.203 29.2871 181.768 29.2812ZM180.162 32.9609C180.168 34.6309 180.818 35.6562 181.768 35.6562C182.717 35.6562 183.367 34.6309 183.373 32.9609C183.367 31.3145 182.717 30.2832 181.768 30.2773C180.818 30.2832 180.168 31.3145 180.162 32.9609ZM198.9 36.7578V37.6836H189.291V36.7578H191.588V34.0156C190.727 33.541 190.199 32.791 190.205 31.8477C190.199 30.1953 191.822 29.1113 194.072 29.1055C196.328 29.1113 197.951 30.1953 197.951 31.8477C197.951 32.7734 197.447 33.5176 196.604 33.9922V36.7578H198.9ZM191.283 31.8477C191.283 32.9727 192.426 33.7051 194.072 33.7109C195.707 33.7051 196.867 32.9727 196.873 31.8477C196.867 30.7168 195.707 29.9961 194.072 29.9961C192.426 29.9961 191.283 30.7168 191.283 31.8477ZM192.689 36.7578H195.479V34.4258C195.051 34.5254 194.576 34.5781 194.072 34.5781C193.58 34.5781 193.111 34.5254 192.689 34.4258V36.7578ZM200.857 38.082C200.4 38.0762 200.02 37.707 200.025 37.25C200.02 36.793 200.4 36.418 200.857 36.418C201.309 36.418 201.684 36.793 201.689 37.25C201.684 37.707 201.309 38.0762 200.857 38.082Z" fill="white"/>
</svg>
